<?xml version="1.0" encoding="utf-8"?>
<svg width="1024" height="1024" viewBox="0 0 1024 1024" fill="none" xmlns="http://www.w3.org/2000/svg">
  <rect width="1024" height="1024" fill="#2295F3" style=""/>
  <rect width="1024" height="1024" rx="184" fill="#2295F3" style="visibility: hidden;"/>
  <g transform="matrix(1, 0, 0, 1, -16.617992, 5.467047)">
    <circle cx="352.795" cy="784.067" r="37.859" fill="white" style=""/>
    <circle cx="539.925" cy="783.844" r="37.859" fill="white" style=""/>
    <circle cx="727.055" cy="783.844" r="37.859" fill="#1872BC" style=""/>
    <path d="M 528.225 191.183 C 404.628 191.183 304.318 291.493 304.318 415.09 C 304.318 538.687 404.628 638.997 528.225 638.997 L 640.178 638.997 L 640.178 594.215 L 528.225 594.215 C 431.049 594.215 349.1 512.265 349.1 415.09 C 349.1 317.914 431.049 235.965 528.225 235.965 C 625.4 235.965 707.35 317.914 707.35 415.09 L 707.35 447.109 C 707.35 464.797 691.453 482.262 673.764 482.262 C 656.075 482.262 640.178 464.797 640.178 447.109 L 640.178 415.09 C 640.178 353.292 590.023 303.136 528.225 303.136 C 466.427 303.136 416.271 353.292 416.271 415.09 C 416.271 476.888 466.427 527.043 528.225 527.043 C 559.124 527.043 587.337 514.505 607.488 494.129 C 622.042 514.056 647.119 527.043 673.764 527.043 C 717.874 527.043 752.132 491.218 752.132 447.109 L 752.132 415.09 C 752.132 291.493 651.822 191.183 528.225 191.183 Z M 528.225 482.262 C 491.057 482.262 461.053 452.258 461.053 415.09 C 461.053 377.922 491.057 347.918 528.225 347.918 C 565.393 347.918 595.397 377.922 595.397 415.09 C 595.397 452.258 565.393 482.262 528.225 482.262 Z" fill="white" style=""/>
    <path d="M 661.715 616.564 C 661.715 628.96 651.666 639.009 639.27 639.009 C 626.874 639.009 616.825 628.96 616.825 616.564 C 616.825 604.169 626.874 594.12 639.27 594.12 C 651.666 594.12 661.715 604.169 661.715 616.564 Z" fill="white" style=""/>
  </g>
</svg>